{"title":"In Our Nature 2012 DVDRip XViD juggs","uid":8523250,"size":742309353,"categoryP":"video","categoryS":"movies","magnet":"?xt=urn:btih:4a41f6219f1fecbcef45c2634a66feab58476ae5&amp;dn=In+Our+Nature+2012+DVDRip+XViD+juggs&amp;tr=udp%3A%2F%2Ftracker.openbittorrent.com%3A80&amp;tr=udp%3A%2F%2Fopen.demonii.com%3A1337&amp;tr=udp%3A%2F%2Ftracker.coppersurfer.tk%3A6969&amp;tr=udp%3A%2F%2Fexodus.desync.com%3A6969","seeders":2,"leechers":2,"uploader":"juggs99","files":3,"time":1369962720,"description":"Source : DVDR-IGUANA(Thanks)\n &lt;a href=&quot;\nhttp://www.imdb.com/title/tt1945087/&quot; rel=&quot;nofollow&quot; target=&quot;_NEW&quot;&gt;\nhttp://www.imdb.com/title/tt1945087/&lt;/a&gt;\n\nFormat                                   : AVI\nFormat/Info                              : Audio Video Interleave\nFile size                                : 698 MiB\nDuration                                 : 1h 42mn\nOverall bit rate                         : 953 Kbps\nWriting library                          : VirtualDub build 32842/release\n\nVideo\nID                                       : 0\nFormat                                   : MPEG-4 Visual\nFormat profile                           : Advanced Simple@L5\nFormat settings, BVOP                    : 2\nFormat settings, QPel                    : No\nFormat settings, GMC                     : No warppoints\nFormat settings, Matrix                  : Default (H.263)\nMuxing mode                              : Packed bitstream\nCodec ID                                 : XVID\nCodec ID/Hint                            : XviD\nDuration                                 : 1h 42mn\nBit rate                                 : 816 Kbps\nWidth                                    : 640 pixels\nHeight                                   : 272 pixels\nDisplay aspect ratio                     : 2.35:1\nFrame rate                               : 23.976 fps\nColor space                              : YUV\nChroma subsampling                       : 4:2:0\nBit depth                                : 8 bits\nScan type                                : Progressive\nCompression mode                         : Lossy\nBits/(Pixel*Frame)                       : 0.195\nStream size                              : 598 MiB (86%)\nWriting library                          : XviD 64\n\nAudio\nID                                       : 1\nFormat                                   : MPEG Audio\nFormat version                           : Version 1\nFormat profile                           : Layer 3\nCodec ID                                 : 55\nCodec ID/Hint                            : MP3\nDuration                                 : 1h 42mn\nBit rate mode                            : Constant\nBit rate                                 : 128 Kbps\nChannel(s)                               : 2 channels\nSampling rate                            : 48.0 KHz\nCompression mode                         : Lossy\nStream size                              : 93.8 MiB (13%)\nAlignment                                : Split accross interleaves\nInterleave, duration                     : 42 ms (1.00 video frame)\nInterleave, preload duration             : 500 ms\nWriting library                          : LAME3.99r\nEncoding settings                        : -m s -V 4 -q 3 -lowpass 17 -b 128\n\nPlot\nA scheduling mistake leads to an estranged father and son sharing a vacation home with their respective girlfriends.\n &lt;a href=&quot;\nhttp://www.shotpix.com/images/63857439344881718065.png&quot; rel=&quot;nofollow&quot; target=&quot;_NEW&quot;&gt;\nhttp://www.shotpix.com/images/63857439344881718065.png&lt;/a&gt; &lt;a href=&quot;\nhttp://www.shotpix.com/images/31204890785359498995.png&quot; rel=&quot;nofollow&quot; target=&quot;_NEW&quot;&gt;\nhttp://www.shotpix.com/images/31204890785359498995.png&lt;/a&gt; &lt;a href=&quot;\nhttp://www.shotpix.com/images/43459086908195793816.png&quot; rel=&quot;nofollow&quot; target=&quot;_NEW&quot;&gt;\nhttp://www.shotpix.com/images/43459086908195793816.png&lt;/a&gt;","torrent":{"xt":"urn:btih:4a41f6219f1fecbcef45c2634a66feab58476ae5","amp;dn":"In+Our+Nature+2012+DVDRip+XViD+juggs","amp;tr":["udp%3A%2F%2Ftracker.openbittorrent.com%3A80","udp%3A%2F%2Fopen.demonii.com%3A1337","udp%3A%2F%2Ftracker.coppersurfer.tk%3A6969","udp%3A%2F%2Fexodus.desync.com%3A6969"],"infoHash":"4a41f6219f1fecbcef45c2634a66feab58476ae5","infoHashBuffer":{"type":"Buffer","data":[74,65,246,33,159,31,236,188,239,69,194,99,74,102,254,171,88,71,106,229]},"announce":[],"urlList":[]}}